<?xml version="1.0" standalone="no"?>
<!DOCTYPE svg PUBLIC "-//W3C//DTD SVG 20010904//EN"
 "http://www.w3.org/TR/2001/REC-SVG-20010904/DTD/svg10.dtd">
<svg version="1.0" xmlns="http://www.w3.org/2000/svg"
 width="1030.000000pt" height="765.000000pt" viewBox="0 0 1030.000000 765.000000"
 preserveAspectRatio="xMidYMid meet">

<g transform="translate(0.000000,765.000000) scale(0.100000,-0.100000)"
fill="#5e063a" stroke="none">
<path d="M5985 7088 c-2 -7 -47 -182 -99 -388 -228 -903 -421 -1670 -501
-1990 -99 -396 -79 -359 -246 -463 -52 -32 -148 -93 -214 -134 -237 -151 -442
-281 -572 -364 -73 -46 -188 -119 -255 -162 -265 -167 -267 -168 -272 -196 -3
-14 -10 -107 -16 -206 -10 -187 -32 -525 -54 -845 -13 -182 -11 -204 18 -194
6 2 56 8 111 14 55 5 174 19 265 30 91 11 226 27 300 35 74 9 189 22 255 30
66 8 237 28 380 44 143 17 319 38 390 46 72 9 186 22 255 30 69 7 144 17 167
20 l41 7 25 -48 c40 -79 83 -230 103 -362 14 -92 22 -122 33 -122 15 0 3065
610 3183 636 l66 15 6 112 c3 62 8 265 11 452 5 317 22 1150 45 2265 5 261 10
536 10 611 l0 136 -92 26 c-95 26 -126 34 -623 182 -159 47 -357 106 -440 130
-217 63 -281 82 -680 200 -198 58 -434 128 -525 155 -91 27 -364 107 -608 179
-243 72 -447 131 -453 131 -5 0 -12 -6 -14 -12z m465 -951 c52 -14 174 -47
270 -72 96 -26 202 -54 235 -62 33 -8 63 -18 68 -22 4 -4 1 -59 -8 -122 -18
-138 -72 -584 -115 -954 -18 -148 -34 -275 -36 -282 -3 -13 -14 -15 -194 -38
-69 -9 -154 -20 -190 -25 -36 -5 -119 -16 -185 -25 -138 -17 -209 -27 -387
-51 -70 -10 -130 -15 -133 -12 -6 5 26 109 172 568 36 113 78 247 94 298 59
188 88 280 129 407 23 72 50 157 60 190 30 102 62 199 72 218 11 21 8 22 148
-16z m1185 -216 c110 -22 252 -49 315 -61 63 -12 203 -39 310 -60 107 -21 283
-55 390 -76 107 -20 265 -51 350 -68 l155 -31 3 -48 c2 -36 -1 -49 -13 -53
-17 -7 -92 7 -575 106 -162 34 -320 65 -350 71 -30 6 -198 40 -373 75 -176 36
-321 63 -323 61 -8 -7 378 -428 400 -437 11 -4 53 -13 91 -19 118 -18 387 -61
445 -71 30 -6 138 -23 240 -39 385 -62 421 -68 429 -77 5 -5 5 -67 0 -139 -5
-71 -17 -287 -29 -479 -11 -193 -23 -353 -27 -357 -8 -8 -112 -20 -388 -45
-88 -7 -230 -21 -315 -29 -176 -17 -302 -29 -475 -45 -278 -25 -555 -51 -620
-59 -38 -5 -74 -5 -79 0 -8 7 70 679 129 1124 8 61 33 259 55 440 38 308 45
355 52 355 2 0 93 -18 203 -39z"/>
<path d="M5715 7069 c-33 -5 -113 -16 -179 -23 -65 -8 -122 -18 -127 -23 -5
-5 -34 -101 -63 -214 -112 -422 -148 -554 -157 -570 -11 -21 -35 -25 -254 -44
-99 -8 -259 -22 -355 -30 -96 -8 -256 -22 -355 -30 -249 -20 -440 -37 -442
-39 -2 -2 -23 -79 -47 -172 -24 -93 -81 -308 -126 -479 -174 -663 -220 -839
-220 -852 0 -11 91 -13 484 -13 277 0 487 -4 490 -9 3 -5 -32 -33 -79 -63 -46
-29 -187 -120 -312 -201 -125 -82 -304 -198 -398 -259 l-170 -111 -90 6 c-84
6 -209 16 -670 53 -99 8 -238 18 -310 24 -71 5 -184 14 -250 20 -66 5 -178 14
-250 20 -277 21 -390 32 -398 39 -4 5 106 83 246 175 140 92 262 175 270 184
8 9 21 40 29 67 l14 50 538 5 c465 4 540 7 547 20 5 8 27 87 50 175 22 88 69
270 105 405 148 564 197 749 214 813 10 38 14 70 9 73 -5 3 -89 -2 -187 -10
-97 -9 -256 -23 -352 -31 -266 -23 -400 -35 -457 -41 -47 -5 -53 -3 -53 13 0
10 19 87 42 170 l43 153 40 15 c22 8 114 36 205 61 91 25 185 52 210 59 81 23
414 117 445 125 17 5 127 36 245 70 118 34 229 65 245 70 17 4 98 27 180 50
83 23 164 46 180 50 17 4 120 33 230 64 110 31 234 66 275 78 41 11 93 26 115
34 l40 14 -50 -4 c-62 -5 -506 -51 -675 -71 -69 -7 -192 -21 -275 -30 -261
-27 -426 -45 -565 -60 -74 -8 -223 -24 -330 -35 -107 -12 -256 -27 -330 -35
-74 -8 -182 -20 -240 -26 -58 -6 -123 -13 -144 -17 l-40 -7 -124 -380 c-68
-209 -181 -558 -252 -775 -71 -217 -177 -545 -237 -728 l-108 -333 -150 -114
c-82 -63 -285 -218 -451 -344 l-301 -230 -12 -128 c-20 -207 -40 -413 -86
-878 -9 -82 -18 -169 -21 -191 -6 -48 -12 -45 161 -69 55 -8 192 -28 305 -45
113 -17 284 -42 380 -55 96 -13 202 -29 235 -34 33 -6 107 -17 165 -25 58 -9
166 -25 240 -36 126 -19 269 -40 520 -75 58 -8 148 -21 200 -29 52 -8 190 -28
305 -45 116 -17 270 -40 344 -51 186 -28 177 -29 185 27 3 25 10 110 16 187 5
78 14 193 20 256 5 63 17 210 25 325 41 556 43 578 62 595 10 10 88 62 173
117 85 55 297 191 469 304 173 112 430 278 570 369 l255 165 52 195 c28 107
91 341 139 520 48 179 100 372 115 430 15 58 107 401 204 762 97 361 176 660
176 663 0 7 -41 5 -115 -6z m-725 -1111 c0 -20 -208 -809 -214 -816 -3 -3 -8
-3 -11 0 -5 5 -54 333 -76 513 -6 55 -17 105 -23 112 -9 11 -167 74 -323 130
-86 30 -75 32 317 57 296 18 330 19 330 4z m-1814 -183 c5 -11 -176 -740 -202
-815 -11 -32 -23 18 -48 205 -41 297 -58 420 -59 422 -2 1 -201 78 -305 118
-41 15 -70 31 -65 35 4 4 105 13 223 20 244 14 431 26 443 28 4 1 10 -5 13
-13z m-2065 -2005 c57 -5 145 -14 194 -20 50 -5 162 -17 250 -25 88 -9 223
-22 300 -30 77 -9 322 -33 545 -55 223 -23 470 -47 550 -56 80 -8 189 -19 244
-24 54 -4 102 -12 107 -17 5 -5 6 -50 3 -101 -7 -89 -8 -92 -31 -92 -22 0
-126 14 -372 51 -40 6 -77 7 -81 2 -4 -4 -15 -66 -24 -138 -10 -71 -33 -240
-52 -375 -18 -135 -36 -260 -39 -279 -2 -19 -8 -38 -13 -43 -8 -8 -59 -3 -252
26 -221 33 -590 88 -655 96 -265 37 -454 66 -460 71 -6 7 97 767 111 812 3 9
0 19 -8 21 -30 8 -143 26 -307 48 -112 15 -175 27 -178 36 -3 7 -2 32 1 57 8
52 1 51 167 35z m-88 -314 c98 -18 180 -36 183 -39 9 -8 -79 -513 -91 -525 -7
-8 -23 38 -70 207 l-46 164 -82 91 c-45 50 -88 97 -94 104 -18 19 -16 32 5 32
9 -1 97 -16 195 -34z m2150 -288 c175 -31 177 -32 177 -57 0 -31 -79 -494 -86
-500 -11 -12 -26 26 -70 189 l-49 175 -76 85 c-42 47 -86 94 -98 104 -50 45
-28 46 202 4z"/>
<path d="M520 2353 c0 -5 52 -107 116 -228 63 -121 149 -285 191 -365 42 -80
82 -152 90 -161 7 -9 35 -19 61 -23 154 -20 246 -36 253 -43 5 -5 20 -49 34
-98 28 -98 81 -216 126 -282 16 -23 29 -47 29 -53 0 -9 -40 -11 -147 -9 -112
3 -229 -5 -478 -29 -311 -31 -534 -51 -563 -52 -34 0 3 -18 50 -24 49 -6 196
-34 633 -118 88 -16 184 -34 214 -38 29 -5 74 -13 100 -19 25 -6 168 -33 316
-61 149 -27 293 -54 320 -60 55 -11 141 -28 315 -60 63 -12 171 -32 240 -45
188 -37 228 -44 315 -60 44 -7 188 -35 320 -60 132 -25 265 -50 295 -56 30 -5
75 -14 100 -19 50 -10 330 -64 571 -109 l156 -29 104 24 c128 31 298 72 674
164 160 39 337 82 395 96 58 14 215 52 350 85 321 78 598 145 905 219 241 58
571 138 990 240 110 27 257 63 327 79 70 17 227 55 350 85 123 30 288 71 368
90 80 19 258 62 395 96 298 72 336 81 665 160 140 34 264 65 275 69 27 11
-294 21 -715 22 -195 1 -383 4 -418 8 l-62 6 38 66 c78 134 137 299 160 452 5
32 6 59 3 62 -4 2 -43 -5 -87 -16 -43 -10 -254 -62 -469 -114 -599 -146 -609
-148 -618 -155 -15 -12 23 -142 68 -238 45 -94 85 -155 137 -204 15 -15 28
-31 28 -35 0 -10 -406 -111 -1150 -288 -129 -31 -291 -69 -360 -86 -595 -142
-832 -195 -836 -187 -3 5 10 39 29 76 128 243 189 548 167 835 -10 136 -46
296 -67 304 -9 3 -50 1 -92 -5 -42 -6 -146 -20 -231 -32 -381 -50 -459 -61
-520 -70 -36 -5 -121 -16 -190 -25 -248 -33 -261 -35 -270 -59 -43 -102 -74
-306 -73 -481 1 -282 73 -528 204 -702 21 -29 39 -58 39 -64 0 -9 -33 -11
-132 -6 -73 4 -320 11 -548 17 l-415 11 -275 45 c-151 25 -340 56 -420 69 -80
14 -266 45 -414 70 -148 24 -271 47 -274 49 -3 3 33 44 79 90 46 47 109 123
139 170 30 47 60 87 66 89 6 3 42 -1 80 -8 38 -7 114 -20 169 -29 299 -46 451
-70 645 -102 118 -20 229 -33 245 -30 155 27 619 126 625 133 4 4 3 55 -3 113
-8 85 -7 136 7 265 9 88 23 185 31 215 29 108 57 103 -282 48 -164 -26 -325
-49 -358 -49 -33 -1 -195 20 -360 46 -340 53 -464 72 -550 84 -75 11 -627 96
-755 116 -168 27 -214 34 -255 40 -41 5 -356 54 -520 79 -49 8 -139 22 -200
30 -60 9 -135 21 -165 26 -71 12 -314 50 -323 50 -4 0 -7 -3 -7 -7z"/>
</g>
</svg>
